<svg width="900" height="160" viewBox="0 0 900 160" fill="none" xmlns="http://www.w3.org/2000/svg">
<g clip-path="url(#clip0)">
<rect width="900" height="160" rx="4" fill="white"/>
<rect width="900" height="160" rx="4" fill="#34CB79"/>
<path d="M624 21.2309L633.3 30.5834" stroke="#269257" stroke-width="2" stroke-miterlimit="10" stroke-linecap="round" stroke-linejoin="round"/>
<path d="M633.3 21.2309L624 30.5834" stroke="#269257" stroke-width="2" stroke-miterlimit="10" stroke-linecap="round" stroke-linejoin="round"/>
<path d="M81.5749 132.445V145.671" stroke="#269257" stroke-width="2" stroke-miterlimit="10" stroke-linecap="round" stroke-linejoin="round"/>
<path d="M88.1675 139.056H75" stroke="#269257" stroke-width="2" stroke-miterlimit="10" stroke-linecap="round" stroke-linejoin="round"/>
<path d="M510.986 128.443C510.986 132.872 507.413 136.481 502.993 136.481C498.588 136.481 495 132.888 495 128.443C495 124.014 498.573 120.405 502.993 120.405C507.413 120.421 510.986 124.014 510.986 128.443Z" stroke="#269257" stroke-width="2" stroke-miterlimit="10" stroke-linecap="round" stroke-linejoin="round"/>
<path d="M14.5386 25.0401C16.1373 25.0401 17.4334 23.7368 17.4334 22.1291C17.4334 20.5213 16.1373 19.218 14.5386 19.218C12.9398 19.218 11.6437 20.5213 11.6437 22.1291C11.6437 23.7368 12.9398 25.0401 14.5386 25.0401Z" fill="white" fill-opacity="0.35"/>
<path d="M34.7427 25.0401C36.3415 25.0401 37.6375 23.7368 37.6375 22.1291C37.6375 20.5213 36.3415 19.218 34.7427 19.218C33.144 19.218 31.8479 20.5213 31.8479 22.1291C31.8479 23.7368 33.144 25.0401 34.7427 25.0401Z" fill="white" fill-opacity="0.35"/>
<path d="M54.9622 25.0401C56.561 25.0401 57.8571 23.7368 57.8571 22.1291C57.8571 20.5213 56.561 19.218 54.9622 19.218C53.3635 19.218 52.0674 20.5213 52.0674 22.1291C52.0674 23.7368 53.3635 25.0401 54.9622 25.0401Z" fill="white" fill-opacity="0.35"/>
<path d="M14.5389 45.3591C16.1377 45.3591 17.4338 44.0558 17.4338 42.4481C17.4338 40.8404 16.1377 39.537 14.5389 39.537C12.9402 39.537 11.6441 40.8404 11.6441 42.4481C11.6441 44.0558 12.9402 45.3591 14.5389 45.3591Z" fill="white" fill-opacity="0.35"/>
<path d="M34.743 45.3591C36.3417 45.3591 37.6378 44.0558 37.6378 42.4481C37.6378 40.8404 36.3417 39.537 34.743 39.537C33.1442 39.537 31.8481 40.8404 31.8481 42.4481C31.8481 44.0558 33.1442 45.3591 34.743 45.3591Z" fill="white" fill-opacity="0.35"/>
<path d="M54.9622 45.3591C56.561 45.3591 57.8571 44.0558 57.8571 42.4481C57.8571 40.8404 56.561 39.537 54.9622 39.537C53.3635 39.537 52.0674 40.8404 52.0674 42.4481C52.0674 44.0558 53.3635 45.3591 54.9622 45.3591Z" fill="white" fill-opacity="0.35"/>
<path d="M14.5389 65.6935C16.1377 65.6935 17.4338 64.3902 17.4338 62.7825C17.4338 61.1747 16.1377 59.8714 14.5389 59.8714C12.9402 59.8714 11.6441 61.1747 11.6441 62.7825C11.6441 64.3902 12.9402 65.6935 14.5389 65.6935Z" fill="white" fill-opacity="0.35"/>
<path d="M34.743 65.6935C36.3417 65.6935 37.6378 64.3902 37.6378 62.7825C37.6378 61.1747 36.3417 59.8714 34.743 59.8714C33.1442 59.8714 31.8481 61.1747 31.8481 62.7825C31.8481 64.3902 33.1442 65.6935 34.743 65.6935Z" fill="white" fill-opacity="0.35"/>
<path d="M54.9622 65.6935C56.561 65.6935 57.8571 64.3902 57.8571 62.7825C57.8571 61.1747 56.561 59.8714 54.9622 59.8714C53.3635 59.8714 52.0674 61.1747 52.0674 62.7825C52.0674 64.3902 53.3635 65.6935 54.9622 65.6935Z" fill="white" fill-opacity="0.35"/>
<path d="M14.5389 86.0121C16.1377 86.0121 17.4338 84.7088 17.4338 83.1011C17.4338 81.4933 16.1377 80.19 14.5389 80.19C12.9402 80.19 11.6441 81.4933 11.6441 83.1011C11.6441 84.7088 12.9402 86.0121 14.5389 86.0121Z" fill="white" fill-opacity="0.35"/>
<path d="M34.743 86.0121C36.3417 86.0121 37.6378 84.7088 37.6378 83.1011C37.6378 81.4933 36.3417 80.19 34.743 80.19C33.1442 80.19 31.8481 81.4933 31.8481 83.1011C31.8481 84.7088 33.1442 86.0121 34.743 86.0121Z" fill="white" fill-opacity="0.35"/>
<path d="M54.9622 86.0121C56.561 86.0121 57.8571 84.7088 57.8571 83.1011C57.8571 81.4933 56.561 80.19 54.9622 80.19C53.3635 80.19 52.0674 81.4933 52.0674 83.1011C52.0674 84.7088 53.3635 86.0121 54.9622 86.0121Z" fill="white" fill-opacity="0.35"/>
<path d="M897.507 25.0402C899.106 25.0402 900.402 23.7369 900.402 22.1292C900.402 20.5215 899.106 19.2181 897.507 19.2181C895.908 19.2181 894.612 20.5215 894.612 22.1292C894.612 23.7369 895.908 25.0402 897.507 25.0402Z" fill="white" fill-opacity="0.35"/>
<path d="M897.507 45.3745C899.106 45.3745 900.402 44.0712 900.402 42.4635C900.402 40.8558 899.106 39.5525 897.507 39.5525C895.908 39.5525 894.612 40.8558 894.612 42.4635C894.612 44.0712 895.908 45.3745 897.507 45.3745Z" fill="white" fill-opacity="0.35"/>
<path d="M897.507 65.6936C899.106 65.6936 900.402 64.3903 900.402 62.7826C900.402 61.1748 899.106 59.8715 897.507 59.8715C895.908 59.8715 894.612 61.1748 894.612 62.7826C894.612 64.3903 895.908 65.6936 897.507 65.6936Z" fill="white" fill-opacity="0.35"/>
<path d="M897.507 86.0279C899.106 86.0279 900.402 84.7246 900.402 83.1169C900.402 81.5092 899.106 80.2059 897.507 80.2059C895.908 80.2059 894.612 81.5092 894.612 83.1169C894.612 84.7246 895.908 86.0279 897.507 86.0279Z" fill="white" fill-opacity="0.35"/>
<path d="M897.507 106.347C899.106 106.347 900.402 105.043 900.402 103.436C900.402 101.828 899.106 100.525 897.507 100.525C895.908 100.525 894.612 101.828 894.612 103.436C894.612 105.043 895.908 106.347 897.507 106.347Z" fill="white" fill-opacity="0.35"/>
<path d="M897.507 126.681C899.106 126.681 900.402 125.378 900.402 123.77C900.402 122.162 899.106 120.859 897.507 120.859C895.908 120.859 894.612 122.162 894.612 123.77C894.612 125.378 895.908 126.681 897.507 126.681Z" fill="white" fill-opacity="0.35"/>
<path d="M897.507 147C899.106 147 900.402 145.697 900.402 144.089C900.402 142.481 899.106 141.178 897.507 141.178C895.908 141.178 894.612 142.481 894.612 144.089C894.612 145.697 895.908 147 897.507 147Z" fill="white" fill-opacity="0.35"/>
<path d="M877.302 25.0402C878.901 25.0402 880.197 23.7369 880.197 22.1292C880.197 20.5215 878.901 19.2181 877.302 19.2181C875.704 19.2181 874.408 20.5215 874.408 22.1292C874.408 23.7369 875.704 25.0402 877.302 25.0402Z" fill="white" fill-opacity="0.35"/>
<path d="M877.302 45.3745C878.901 45.3745 880.197 44.0712 880.197 42.4635C880.197 40.8558 878.901 39.5525 877.302 39.5525C875.704 39.5525 874.408 40.8558 874.408 42.4635C874.408 44.0712 875.704 45.3745 877.302 45.3745Z" fill="white" fill-opacity="0.35"/>
<path d="M877.302 65.6936C878.901 65.6936 880.197 64.3903 880.197 62.7826C880.197 61.1748 878.901 59.8715 877.302 59.8715C875.704 59.8715 874.408 61.1748 874.408 62.7826C874.408 64.3903 875.704 65.6936 877.302 65.6936Z" fill="white" fill-opacity="0.35"/>
<path d="M877.302 86.0279C878.901 86.0279 880.197 84.7246 880.197 83.1169C880.197 81.5092 878.901 80.2059 877.302 80.2059C875.704 80.2059 874.408 81.5092 874.408 83.1169C874.408 84.7246 875.704 86.0279 877.302 86.0279Z" fill="white" fill-opacity="0.35"/>
<path d="M877.302 106.347C878.901 106.347 880.197 105.043 880.197 103.436C880.197 101.828 878.901 100.525 877.302 100.525C875.704 100.525 874.408 101.828 874.408 103.436C874.408 105.043 875.704 106.347 877.302 106.347Z" fill="white" fill-opacity="0.35"/>
<path d="M877.302 126.681C878.901 126.681 880.197 125.378 880.197 123.77C880.197 122.162 878.901 120.859 877.302 120.859C875.704 120.859 874.408 122.162 874.408 123.77C874.408 125.378 875.704 126.681 877.302 126.681Z" fill="white" fill-opacity="0.35"/>
<path d="M877.302 147C878.901 147 880.197 145.697 880.197 144.089C880.197 142.481 878.901 141.178 877.302 141.178C875.704 141.178 874.408 142.481 874.408 144.089C874.408 145.697 875.704 147 877.302 147Z" fill="white" fill-opacity="0.35"/>
<path d="M857.084 25.0412C858.682 25.0412 859.978 23.7378 859.978 22.1301C859.978 20.5224 858.682 19.2191 857.084 19.2191C855.485 19.2191 854.189 20.5224 854.189 22.1301C854.189 23.7378 855.485 25.0412 857.084 25.0412Z" fill="white" fill-opacity="0.35"/>
<path d="M857.083 45.3745C858.682 45.3745 859.978 44.0712 859.978 42.4635C859.978 40.8558 858.682 39.5525 857.083 39.5525C855.484 39.5525 854.188 40.8558 854.188 42.4635C854.188 44.0712 855.484 45.3745 857.083 45.3745Z" fill="white" fill-opacity="0.35"/>
<path d="M857.083 65.6936C858.682 65.6936 859.978 64.3903 859.978 62.7826C859.978 61.1748 858.682 59.8715 857.083 59.8715C855.484 59.8715 854.188 61.1748 854.188 62.7826C854.188 64.3903 855.484 65.6936 857.083 65.6936Z" fill="white" fill-opacity="0.35"/>
<path d="M857.083 86.0279C858.682 86.0279 859.978 84.7245 859.978 83.1168C859.978 81.5091 858.682 80.2058 857.083 80.2058C855.484 80.2058 854.188 81.5091 854.188 83.1168C854.188 84.7245 855.484 86.0279 857.083 86.0279Z" fill="white" fill-opacity="0.35"/>
<path d="M857.083 106.347C858.682 106.347 859.978 105.043 859.978 103.436C859.978 101.828 858.682 100.525 857.083 100.525C855.484 100.525 854.188 101.828 854.188 103.436C854.188 105.043 855.484 106.347 857.083 106.347Z" fill="white" fill-opacity="0.35"/>
<path d="M857.083 126.681C858.682 126.681 859.978 125.378 859.978 123.77C859.978 122.162 858.682 120.859 857.083 120.859C855.484 120.859 854.188 122.162 854.188 123.77C854.188 125.378 855.484 126.681 857.083 126.681Z" fill="white" fill-opacity="0.35"/>
<path d="M857.083 147C858.682 147 859.978 145.697 859.978 144.089C859.978 142.481 858.682 141.178 857.083 141.178C855.484 141.178 854.188 142.481 854.188 144.089C854.188 145.697 855.484 147 857.083 147Z" fill="white" fill-opacity="0.35"/>
<path d="M222.154 97.454L218.518 110H216.682L213.766 99.902L210.742 110L208.924 110.018L205.414 97.454H207.16L209.896 108.092L212.92 97.454H214.756L217.636 108.056L220.39 97.454H222.154ZM223.335 105.032C223.335 104.024 223.539 103.142 223.947 102.386C224.355 101.618 224.913 101.024 225.621 100.604C226.341 100.184 227.139 99.974 228.015 99.974C228.879 99.974 229.629 100.16 230.265 100.532C230.901 100.904 231.375 101.372 231.687 101.936V100.136H233.343V110H231.687V108.164C231.363 108.74 230.877 109.22 230.229 109.604C229.593 109.976 228.849 110.162 227.997 110.162C227.121 110.162 226.329 109.946 225.621 109.514C224.913 109.082 224.355 108.476 223.947 107.696C223.539 106.916 223.335 106.028 223.335 105.032ZM231.687 105.05C231.687 104.306 231.537 103.658 231.237 103.106C230.937 102.554 230.529 102.134 230.013 101.846C229.509 101.546 228.951 101.396 228.339 101.396C227.727 101.396 227.169 101.54 226.665 101.828C226.161 102.116 225.759 102.536 225.459 103.088C225.159 103.64 225.009 104.288 225.009 105.032C225.009 105.788 225.159 106.448 225.459 107.012C225.759 107.564 226.161 107.99 226.665 108.29C227.169 108.578 227.727 108.722 228.339 108.722C228.951 108.722 229.509 108.578 230.013 108.29C230.529 107.99 230.937 107.564 231.237 107.012C231.537 106.448 231.687 105.794 231.687 105.05ZM239.603 110.162C238.847 110.162 238.169 110.036 237.569 109.784C236.969 109.52 236.495 109.16 236.147 108.704C235.799 108.236 235.607 107.702 235.571 107.102H237.263C237.311 107.594 237.539 107.996 237.947 108.308C238.367 108.62 238.913 108.776 239.585 108.776C240.209 108.776 240.701 108.638 241.061 108.362C241.421 108.086 241.601 107.738 241.601 107.318C241.601 106.886 241.409 106.568 241.025 106.364C240.641 106.148 240.047 105.938 239.243 105.734C238.511 105.542 237.911 105.35 237.443 105.158C236.987 104.954 236.591 104.66 236.255 104.276C235.931 103.88 235.769 103.364 235.769 102.728C235.769 102.224 235.919 101.762 236.219 101.342C236.519 100.922 236.945 100.592 237.497 100.352C238.049 100.1 238.679 99.974 239.387 99.974C240.479 99.974 241.361 100.25 242.033 100.802C242.705 101.354 243.065 102.11 243.113 103.07H241.475C241.439 102.554 241.229 102.14 240.845 101.828C240.473 101.516 239.969 101.36 239.333 101.36C238.745 101.36 238.277 101.486 237.929 101.738C237.581 101.99 237.407 102.32 237.407 102.728C237.407 103.052 237.509 103.322 237.713 103.538C237.929 103.742 238.193 103.91 238.505 104.042C238.829 104.162 239.273 104.3 239.837 104.456C240.545 104.648 241.121 104.84 241.565 105.032C242.009 105.212 242.387 105.488 242.699 105.86C243.023 106.232 243.191 106.718 243.203 107.318C243.203 107.858 243.053 108.344 242.753 108.776C242.453 109.208 242.027 109.55 241.475 109.802C240.935 110.042 240.311 110.162 239.603 110.162ZM247.513 101.486V107.3C247.513 107.78 247.615 108.122 247.819 108.326C248.023 108.518 248.377 108.614 248.881 108.614H250.087V110H248.611C247.699 110 247.015 109.79 246.559 109.37C246.103 108.95 245.875 108.26 245.875 107.3V101.486H244.597V100.136H245.875V97.652H247.513V100.136H250.087V101.486H247.513ZM261.072 104.69C261.072 105.002 261.054 105.332 261.018 105.68H253.134C253.194 106.652 253.524 107.414 254.124 107.966C254.736 108.506 255.474 108.776 256.338 108.776C257.046 108.776 257.634 108.614 258.102 108.29C258.582 107.954 258.918 107.51 259.11 106.958H260.874C260.61 107.906 260.082 108.68 259.29 109.28C258.498 109.868 257.514 110.162 256.338 110.162C255.402 110.162 254.562 109.952 253.818 109.532C253.086 109.112 252.51 108.518 252.09 107.75C251.67 106.97 251.46 106.07 251.46 105.05C251.46 104.03 251.664 103.136 252.072 102.368C252.48 101.6 253.05 101.012 253.782 100.604C254.526 100.184 255.378 99.974 256.338 99.974C257.274 99.974 258.102 100.178 258.822 100.586C259.542 100.994 260.094 101.558 260.478 102.278C260.874 102.986 261.072 103.79 261.072 104.69ZM259.38 104.348C259.38 103.724 259.242 103.19 258.966 102.746C258.69 102.29 258.312 101.948 257.832 101.72C257.364 101.48 256.842 101.36 256.266 101.36C255.438 101.36 254.73 101.624 254.142 102.152C253.566 102.68 253.236 103.412 253.152 104.348H259.38ZM267.42 105.05C267.42 104.03 267.624 103.142 268.032 102.386C268.44 101.618 269.004 101.024 269.724 100.604C270.456 100.184 271.29 99.974 272.226 99.974C273.438 99.974 274.434 100.268 275.214 100.856C276.006 101.444 276.528 102.26 276.78 103.304H275.016C274.848 102.704 274.518 102.23 274.026 101.882C273.546 101.534 272.946 101.36 272.226 101.36C271.29 101.36 270.534 101.684 269.958 102.332C269.382 102.968 269.094 103.874 269.094 105.05C269.094 106.238 269.382 107.156 269.958 107.804C270.534 108.452 271.29 108.776 272.226 108.776C272.946 108.776 273.546 108.608 274.026 108.272C274.506 107.936 274.836 107.456 275.016 106.832H276.78C276.516 107.84 275.988 108.65 275.196 109.262C274.404 109.862 273.414 110.162 272.226 110.162C271.29 110.162 270.456 109.952 269.724 109.532C269.004 109.112 268.44 108.518 268.032 107.75C267.624 106.982 267.42 106.082 267.42 105.05ZM283.268 110.162C282.344 110.162 281.504 109.952 280.748 109.532C280.004 109.112 279.416 108.518 278.984 107.75C278.564 106.97 278.354 106.07 278.354 105.05C278.354 104.042 278.57 103.154 279.002 102.386C279.446 101.606 280.046 101.012 280.802 100.604C281.558 100.184 282.404 99.974 283.34 99.974C284.276 99.974 285.122 100.184 285.878 100.604C286.634 101.012 287.228 101.6 287.66 102.368C288.104 103.136 288.326 104.03 288.326 105.05C288.326 106.07 288.098 106.97 287.642 107.75C287.198 108.518 286.592 109.112 285.824 109.532C285.056 109.952 284.204 110.162 283.268 110.162ZM283.268 108.722C283.856 108.722 284.408 108.584 284.924 108.308C285.44 108.032 285.854 107.618 286.166 107.066C286.49 106.514 286.652 105.842 286.652 105.05C286.652 104.258 286.496 103.586 286.184 103.034C285.872 102.482 285.464 102.074 284.96 101.81C284.456 101.534 283.91 101.396 283.322 101.396C282.722 101.396 282.17 101.534 281.666 101.81C281.174 102.074 280.778 102.482 280.478 103.034C280.178 103.586 280.028 104.258 280.028 105.05C280.028 105.854 280.172 106.532 280.46 107.084C280.76 107.636 281.156 108.05 281.648 108.326C282.14 108.59 282.68 108.722 283.268 108.722ZM292.118 96.68V110H290.48V96.68H292.118ZM296.547 96.68V110H294.909V96.68H296.547ZM308.339 104.69C308.339 105.002 308.321 105.332 308.285 105.68H300.401C300.461 106.652 300.791 107.414 301.391 107.966C302.003 108.506 302.741 108.776 303.605 108.776C304.313 108.776 304.901 108.614 305.369 108.29C305.849 107.954 306.185 107.51 306.377 106.958H308.141C307.877 107.906 307.349 108.68 306.557 109.28C305.765 109.868 304.781 110.162 303.605 110.162C302.669 110.162 301.829 109.952 301.085 109.532C300.353 109.112 299.777 108.518 299.357 107.75C298.937 106.97 298.727 106.07 298.727 105.05C298.727 104.03 298.931 103.136 299.339 102.368C299.747 101.6 300.317 101.012 301.049 100.604C301.793 100.184 302.645 99.974 303.605 99.974C304.541 99.974 305.369 100.178 306.089 100.586C306.809 100.994 307.361 101.558 307.745 102.278C308.141 102.986 308.339 103.79 308.339 104.69ZM306.647 104.348C306.647 103.724 306.509 103.19 306.233 102.746C305.957 102.29 305.579 101.948 305.099 101.72C304.631 101.48 304.109 101.36 303.533 101.36C302.705 101.36 301.997 101.624 301.409 102.152C300.833 102.68 300.503 103.412 300.419 104.348H306.647ZM309.889 105.05C309.889 104.03 310.093 103.142 310.501 102.386C310.909 101.618 311.473 101.024 312.193 100.604C312.925 100.184 313.759 99.974 314.695 99.974C315.907 99.974 316.903 100.268 317.683 100.856C318.475 101.444 318.997 102.26 319.249 103.304H317.485C317.317 102.704 316.987 102.23 316.495 101.882C316.015 101.534 315.415 101.36 314.695 101.36C313.759 101.36 313.003 101.684 312.427 102.332C311.851 102.968 311.563 103.874 311.563 105.05C311.563 106.238 311.851 107.156 312.427 107.804C313.003 108.452 313.759 108.776 314.695 108.776C315.415 108.776 316.015 108.608 316.495 108.272C316.975 107.936 317.305 107.456 317.485 106.832H319.249C318.985 107.84 318.457 108.65 317.665 109.262C316.873 109.862 315.883 110.162 314.695 110.162C313.759 110.162 312.925 109.952 312.193 109.532C311.473 109.112 310.909 108.518 310.501 107.75C310.093 106.982 309.889 106.082 309.889 105.05ZM323.433 101.486V107.3C323.433 107.78 323.535 108.122 323.739 108.326C323.943 108.518 324.297 108.614 324.801 108.614H326.007V110H324.531C323.619 110 322.935 109.79 322.479 109.37C322.023 108.95 321.795 108.26 321.795 107.3V101.486H320.517V100.136H321.795V97.652H323.433V100.136H326.007V101.486H323.433ZM328.837 98.534C328.525 98.534 328.261 98.426 328.045 98.21C327.829 97.994 327.721 97.73 327.721 97.418C327.721 97.106 327.829 96.842 328.045 96.626C328.261 96.41 328.525 96.302 328.837 96.302C329.137 96.302 329.389 96.41 329.593 96.626C329.809 96.842 329.917 97.106 329.917 97.418C329.917 97.73 329.809 97.994 329.593 98.21C329.389 98.426 329.137 98.534 328.837 98.534ZM329.629 100.136V110H327.991V100.136H329.629ZM336.723 110.162C335.799 110.162 334.959 109.952 334.203 109.532C333.459 109.112 332.871 108.518 332.439 107.75C332.019 106.97 331.809 106.07 331.809 105.05C331.809 104.042 332.025 103.154 332.457 102.386C332.901 101.606 333.501 101.012 334.257 100.604C335.013 100.184 335.859 99.974 336.795 99.974C337.731 99.974 338.577 100.184 339.333 100.604C340.089 101.012 340.683 101.6 341.115 102.368C341.559 103.136 341.781 104.03 341.781 105.05C341.781 106.07 341.553 106.97 341.097 107.75C340.653 108.518 340.047 109.112 339.279 109.532C338.511 109.952 337.659 110.162 336.723 110.162ZM336.723 108.722C337.311 108.722 337.863 108.584 338.379 108.308C338.895 108.032 339.309 107.618 339.621 107.066C339.945 106.514 340.107 105.842 340.107 105.05C340.107 104.258 339.951 103.586 339.639 103.034C339.327 102.482 338.919 102.074 338.415 101.81C337.911 101.534 337.365 101.396 336.777 101.396C336.177 101.396 335.625 101.534 335.121 101.81C334.629 102.074 334.233 102.482 333.933 103.034C333.633 103.586 333.483 104.258 333.483 105.05C333.483 105.854 333.627 106.532 333.915 107.084C334.215 107.636 334.611 108.05 335.103 108.326C335.595 108.59 336.135 108.722 336.723 108.722ZM348.741 99.956C349.941 99.956 350.913 100.322 351.657 101.054C352.401 101.774 352.773 102.818 352.773 104.186V110H351.153V104.42C351.153 103.436 350.907 102.686 350.415 102.17C349.923 101.642 349.251 101.378 348.399 101.378C347.535 101.378 346.845 101.648 346.329 102.188C345.825 102.728 345.573 103.514 345.573 104.546V110H343.935V100.136H345.573V101.54C345.897 101.036 346.335 100.646 346.887 100.37C347.451 100.094 348.069 99.956 348.741 99.956ZM372.109 99.956C372.877 99.956 373.561 100.118 374.161 100.442C374.761 100.754 375.235 101.228 375.583 101.864C375.931 102.5 376.105 103.274 376.105 104.186V110H374.485V104.42C374.485 103.436 374.239 102.686 373.747 102.17C373.267 101.642 372.613 101.378 371.785 101.378C370.933 101.378 370.255 101.654 369.751 102.206C369.247 102.746 368.995 103.532 368.995 104.564V110H367.375V104.42C367.375 103.436 367.129 102.686 366.637 102.17C366.157 101.642 365.503 101.378 364.675 101.378C363.823 101.378 363.145 101.654 362.641 102.206C362.137 102.746 361.885 103.532 361.885 104.564V110H360.247V100.136H361.885V101.558C362.209 101.042 362.641 100.646 363.181 100.37C363.733 100.094 364.339 99.956 364.999 99.956C365.827 99.956 366.559 100.142 367.195 100.514C367.831 100.886 368.305 101.432 368.617 102.152C368.893 101.456 369.349 100.916 369.985 100.532C370.621 100.148 371.329 99.956 372.109 99.956ZM378.18 105.032C378.18 104.024 378.384 103.142 378.792 102.386C379.2 101.618 379.758 101.024 380.466 100.604C381.186 100.184 381.984 99.974 382.86 99.974C383.724 99.974 384.474 100.16 385.11 100.532C385.746 100.904 386.22 101.372 386.532 101.936V100.136H388.188V110H386.532V108.164C386.208 108.74 385.722 109.22 385.074 109.604C384.438 109.976 383.694 110.162 382.842 110.162C381.966 110.162 381.174 109.946 380.466 109.514C379.758 109.082 379.2 108.476 378.792 107.696C378.384 106.916 378.18 106.028 378.18 105.032ZM386.532 105.05C386.532 104.306 386.382 103.658 386.082 103.106C385.782 102.554 385.374 102.134 384.858 101.846C384.354 101.546 383.796 101.396 383.184 101.396C382.572 101.396 382.014 101.54 381.51 101.828C381.006 102.116 380.604 102.536 380.304 103.088C380.004 103.64 379.854 104.288 379.854 105.032C379.854 105.788 380.004 106.448 380.304 107.012C380.604 107.564 381.006 107.99 381.51 108.29C382.014 108.578 382.572 108.722 383.184 108.722C383.796 108.722 384.354 108.578 384.858 108.29C385.374 107.99 385.782 107.564 386.082 107.012C386.382 106.448 386.532 105.794 386.532 105.05ZM392.594 101.738C392.882 101.174 393.29 100.736 393.818 100.424C394.358 100.112 395.012 99.956 395.78 99.956V101.648H395.348C393.512 101.648 392.594 102.644 392.594 104.636V110H390.956V100.136H392.594V101.738ZM403.179 110L399.309 105.644V110H397.671V96.68H399.309V104.51L403.107 100.136H405.393L400.749 105.05L405.411 110H403.179ZM415.935 104.69C415.935 105.002 415.917 105.332 415.881 105.68H407.997C408.057 106.652 408.387 107.414 408.987 107.966C409.599 108.506 410.337 108.776 411.201 108.776C411.909 108.776 412.497 108.614 412.965 108.29C413.445 107.954 413.781 107.51 413.973 106.958H415.737C415.473 107.906 414.945 108.68 414.153 109.28C413.361 109.868 412.377 110.162 411.201 110.162C410.265 110.162 409.425 109.952 408.681 109.532C407.949 109.112 407.373 108.518 406.953 107.75C406.533 106.97 406.323 106.07 406.323 105.05C406.323 104.03 406.527 103.136 406.935 102.368C407.343 101.6 407.913 101.012 408.645 100.604C409.389 100.184 410.241 99.974 411.201 99.974C412.137 99.974 412.965 100.178 413.685 100.586C414.405 100.994 414.957 101.558 415.341 102.278C415.737 102.986 415.935 103.79 415.935 104.69ZM414.243 104.348C414.243 103.724 414.105 103.19 413.829 102.746C413.553 102.29 413.175 101.948 412.695 101.72C412.227 101.48 411.705 101.36 411.129 101.36C410.301 101.36 409.593 101.624 409.005 102.152C408.429 102.68 408.099 103.412 408.015 104.348H414.243ZM420.095 101.486V107.3C420.095 107.78 420.197 108.122 420.401 108.326C420.605 108.518 420.959 108.614 421.463 108.614H422.669V110H421.193C420.281 110 419.597 109.79 419.141 109.37C418.685 108.95 418.457 108.26 418.457 107.3V101.486H417.179V100.136H418.457V97.652H420.095V100.136H422.669V101.486H420.095ZM426.292 101.954C426.616 101.39 427.096 100.922 427.732 100.55C428.38 100.166 429.13 99.974 429.982 99.974C430.858 99.974 431.65 100.184 432.358 100.604C433.078 101.024 433.642 101.618 434.05 102.386C434.458 103.142 434.662 104.024 434.662 105.032C434.662 106.028 434.458 106.916 434.05 107.696C433.642 108.476 433.078 109.082 432.358 109.514C431.65 109.946 430.858 110.162 429.982 110.162C429.142 110.162 428.398 109.976 427.75 109.604C427.114 109.22 426.628 108.746 426.292 108.182V114.68H424.654V100.136H426.292V101.954ZM432.988 105.032C432.988 104.288 432.838 103.64 432.538 103.088C432.238 102.536 431.83 102.116 431.314 101.828C430.81 101.54 430.252 101.396 429.64 101.396C429.04 101.396 428.482 101.546 427.966 101.846C427.462 102.134 427.054 102.56 426.742 103.124C426.442 103.676 426.292 104.318 426.292 105.05C426.292 105.794 426.442 106.448 426.742 107.012C427.054 107.564 427.462 107.99 427.966 108.29C428.482 108.578 429.04 108.722 429.64 108.722C430.252 108.722 430.81 108.578 431.314 108.29C431.83 107.99 432.238 107.564 432.538 107.012C432.838 106.448 432.988 105.788 432.988 105.032ZM438.456 96.68V110H436.818V96.68H438.456ZM440.635 105.032C440.635 104.024 440.839 103.142 441.247 102.386C441.655 101.618 442.213 101.024 442.921 100.604C443.641 100.184 444.439 99.974 445.315 99.974C446.179 99.974 446.929 100.16 447.565 100.532C448.201 100.904 448.675 101.372 448.987 101.936V100.136H450.643V110H448.987V108.164C448.663 108.74 448.177 109.22 447.529 109.604C446.893 109.976 446.149 110.162 445.297 110.162C444.421 110.162 443.629 109.946 442.921 109.514C442.213 109.082 441.655 108.476 441.247 107.696C440.839 106.916 440.635 106.028 440.635 105.032ZM448.987 105.05C448.987 104.306 448.837 103.658 448.537 103.106C448.237 102.554 447.829 102.134 447.313 101.846C446.809 101.546 446.251 101.396 445.639 101.396C445.027 101.396 444.469 101.54 443.965 101.828C443.461 102.116 443.059 102.536 442.759 103.088C442.459 103.64 442.309 104.288 442.309 105.032C442.309 105.788 442.459 106.448 442.759 107.012C443.059 107.564 443.461 107.99 443.965 108.29C444.469 108.578 445.027 108.722 445.639 108.722C446.251 108.722 446.809 108.578 447.313 108.29C447.829 107.99 448.237 107.564 448.537 107.012C448.837 106.448 448.987 105.794 448.987 105.05ZM452.799 105.05C452.799 104.03 453.003 103.142 453.411 102.386C453.819 101.618 454.383 101.024 455.103 100.604C455.835 100.184 456.669 99.974 457.605 99.974C458.817 99.974 459.813 100.268 460.593 100.856C461.385 101.444 461.907 102.26 462.159 103.304H460.395C460.227 102.704 459.897 102.23 459.405 101.882C458.925 101.534 458.325 101.36 457.605 101.36C456.669 101.36 455.913 101.684 455.337 102.332C454.761 102.968 454.473 103.874 454.473 105.05C454.473 106.238 454.761 107.156 455.337 107.804C455.913 108.452 456.669 108.776 457.605 108.776C458.325 108.776 458.925 108.608 459.405 108.272C459.885 107.936 460.215 107.456 460.395 106.832H462.159C461.895 107.84 461.367 108.65 460.575 109.262C459.783 109.862 458.793 110.162 457.605 110.162C456.669 110.162 455.835 109.952 455.103 109.532C454.383 109.112 453.819 108.518 453.411 107.75C453.003 106.982 452.799 106.082 452.799 105.05ZM473.345 104.69C473.345 105.002 473.327 105.332 473.291 105.68H465.407C465.467 106.652 465.797 107.414 466.397 107.966C467.009 108.506 467.747 108.776 468.611 108.776C469.319 108.776 469.907 108.614 470.375 108.29C470.855 107.954 471.191 107.51 471.383 106.958H473.147C472.883 107.906 472.355 108.68 471.563 109.28C470.771 109.868 469.787 110.162 468.611 110.162C467.675 110.162 466.835 109.952 466.091 109.532C465.359 109.112 464.783 108.518 464.363 107.75C463.943 106.97 463.733 106.07 463.733 105.05C463.733 104.03 463.937 103.136 464.345 102.368C464.753 101.6 465.323 101.012 466.055 100.604C466.799 100.184 467.651 99.974 468.611 99.974C469.547 99.974 470.375 100.178 471.095 100.586C471.815 100.994 472.367 101.558 472.751 102.278C473.147 102.986 473.345 103.79 473.345 104.69ZM471.653 104.348C471.653 103.724 471.515 103.19 471.239 102.746C470.963 102.29 470.585 101.948 470.105 101.72C469.637 101.48 469.115 101.36 468.539 101.36C467.711 101.36 467.003 101.624 466.415 102.152C465.839 102.68 465.509 103.412 465.425 104.348H471.653ZM476.029 110.108C475.717 110.108 475.453 110 475.237 109.784C475.021 109.568 474.913 109.304 474.913 108.992C474.913 108.68 475.021 108.416 475.237 108.2C475.453 107.984 475.717 107.876 476.029 107.876C476.329 107.876 476.581 107.984 476.785 108.2C477.001 108.416 477.109 108.68 477.109 108.992C477.109 109.304 477.001 109.568 476.785 109.784C476.581 110 476.329 110.108 476.029 110.108Z" fill="#C2FFD3"/>
<path d="M203.637 81.29V53.57H222.489V58.81H209.921V64.25H221.079V69.37H209.921V76.05H223.416V81.29H203.637Z" fill="white"/>
<path d="M226.184 70.77C226.184 69.25 226.426 67.8233 226.909 66.49C227.42 65.13 228.145 63.9567 229.085 62.97C230.025 61.9567 231.166 61.1567 232.509 60.57C233.851 59.9833 235.382 59.69 237.101 59.69C238.229 59.69 239.263 59.7967 240.203 60.01C241.143 60.1967 242.056 60.4767 242.942 60.85L241.693 65.61C241.129 65.3967 240.512 65.21 239.84 65.05C239.169 64.89 238.417 64.81 237.584 64.81C235.812 64.81 234.483 65.3567 233.596 66.45C232.737 67.5433 232.307 68.9833 232.307 70.77C232.307 72.6633 232.71 74.13 233.516 75.17C234.348 76.21 235.785 76.73 237.826 76.73C238.551 76.73 239.33 76.6633 240.162 76.53C240.995 76.3967 241.76 76.1833 242.459 75.89L243.305 80.77C242.606 81.0633 241.734 81.3167 240.686 81.53C239.639 81.7433 238.484 81.85 237.222 81.85C235.288 81.85 233.623 81.57 232.227 81.01C230.83 80.4233 229.675 79.6367 228.762 78.65C227.876 77.6633 227.218 76.5033 226.789 75.17C226.386 73.81 226.184 72.3433 226.184 70.77Z" fill="white"/>
<path d="M266.129 70.73C266.129 72.3833 265.888 73.9033 265.404 75.29C264.921 76.65 264.223 77.8233 263.309 78.81C262.396 79.77 261.295 80.5167 260.006 81.05C258.744 81.5833 257.321 81.85 255.736 81.85C254.179 81.85 252.755 81.5833 251.466 81.05C250.204 80.5167 249.116 79.77 248.203 78.81C247.29 77.8233 246.579 76.65 246.068 75.29C245.558 73.9033 245.303 72.3833 245.303 70.73C245.303 69.0767 245.558 67.57 246.068 66.21C246.605 64.85 247.331 63.69 248.244 62.73C249.184 61.77 250.285 61.0233 251.547 60.49C252.836 59.9567 254.232 59.69 255.736 59.69C257.267 59.69 258.664 59.9567 259.926 60.49C261.215 61.0233 262.316 61.77 263.229 62.73C264.142 63.69 264.854 64.85 265.364 66.21C265.874 67.57 266.129 69.0767 266.129 70.73ZM260.006 70.73C260.006 68.89 259.63 67.45 258.878 66.41C258.153 65.3433 257.106 64.81 255.736 64.81C254.367 64.81 253.306 65.3433 252.554 66.41C251.802 67.45 251.426 68.89 251.426 70.73C251.426 72.57 251.802 74.0367 252.554 75.13C253.306 76.1967 254.367 76.73 255.736 76.73C257.106 76.73 258.153 76.1967 258.878 75.13C259.63 74.0367 260.006 72.57 260.006 70.73Z" fill="white"/>
<path d="M279.238 81.69C277.493 81.6633 276.069 81.4767 274.968 81.13C273.894 80.7833 273.035 80.3033 272.39 79.69C271.772 79.05 271.343 78.29 271.101 77.41C270.886 76.5033 270.779 75.49 270.779 74.37V51.21L276.781 50.25V73.17C276.781 73.7033 276.821 74.1833 276.902 74.61C276.982 75.0367 277.13 75.3967 277.345 75.69C277.587 75.9833 277.922 76.2233 278.352 76.41C278.782 76.5967 279.359 76.7167 280.084 76.77L279.238 81.69Z" fill="white"/>
<path d="M282.518 70.93C282.518 69.0633 282.8 67.4367 283.363 66.05C283.954 64.6367 284.72 63.4633 285.66 62.53C286.6 61.5967 287.674 60.89 288.882 60.41C290.118 59.93 291.38 59.69 292.669 59.69C295.677 59.69 298.053 60.61 299.799 62.45C301.545 64.2633 302.417 66.9433 302.417 70.49C302.417 70.8367 302.404 71.2233 302.377 71.65C302.35 72.05 302.323 72.41 302.297 72.73H288.681C288.815 73.9567 289.393 74.93 290.413 75.65C291.434 76.37 292.803 76.73 294.522 76.73C295.623 76.73 296.697 76.6367 297.745 76.45C298.819 76.2367 299.692 75.9833 300.363 75.69L301.169 80.53C300.846 80.69 300.417 80.85 299.88 81.01C299.342 81.17 298.738 81.3033 298.067 81.41C297.422 81.5433 296.724 81.65 295.972 81.73C295.22 81.81 294.468 81.85 293.716 81.85C291.81 81.85 290.144 81.57 288.721 81.01C287.325 80.45 286.156 79.69 285.217 78.73C284.303 77.7433 283.619 76.5833 283.162 75.25C282.732 73.9167 282.518 72.4767 282.518 70.93ZM296.617 68.65C296.59 68.1433 296.496 67.65 296.335 67.17C296.2 66.69 295.972 66.2633 295.65 65.89C295.354 65.5167 294.965 65.21 294.482 64.97C294.025 64.73 293.448 64.61 292.749 64.61C292.078 64.61 291.501 64.73 291.017 64.97C290.534 65.1833 290.131 65.4767 289.809 65.85C289.487 66.2233 289.231 66.6633 289.043 67.17C288.882 67.65 288.761 68.1433 288.681 68.65H296.617Z" fill="white"/>
<path d="M306.848 55.01L312.85 54.05V60.25H320.061V65.21H312.85V72.61C312.85 73.8633 313.065 74.8633 313.495 75.61C313.951 76.3567 314.851 76.73 316.194 76.73C316.838 76.73 317.496 76.6767 318.167 76.57C318.866 76.4367 319.497 76.2633 320.061 76.05L320.907 80.69C320.182 80.9833 319.376 81.2367 318.49 81.45C317.603 81.6633 316.516 81.77 315.227 81.77C313.589 81.77 312.232 81.5567 311.158 81.13C310.084 80.6767 309.225 80.0633 308.58 79.29C307.936 78.49 307.479 77.53 307.21 76.41C306.969 75.29 306.848 74.05 306.848 72.69V55.01Z" fill="white"/>
<path d="M332.259 77.13C332.849 77.13 333.413 77.1167 333.95 77.09C334.488 77.0633 334.917 77.0233 335.24 76.97V72.45C334.998 72.3967 334.635 72.3433 334.152 72.29C333.668 72.2367 333.225 72.21 332.823 72.21C332.259 72.21 331.721 72.25 331.211 72.33C330.728 72.3833 330.298 72.5033 329.922 72.69C329.546 72.8767 329.251 73.13 329.036 73.45C328.821 73.77 328.714 74.17 328.714 74.65C328.714 75.5833 329.023 76.2367 329.64 76.61C330.285 76.9567 331.158 77.13 332.259 77.13ZM331.775 59.69C333.548 59.69 335.025 59.89 336.206 60.29C337.388 60.69 338.328 61.2633 339.026 62.01C339.751 62.7567 340.261 63.6633 340.557 64.73C340.852 65.7967 341 66.9833 341 68.29V80.69C340.141 80.8767 338.946 81.09 337.415 81.33C335.884 81.5967 334.031 81.73 331.856 81.73C330.486 81.73 329.237 81.61 328.109 81.37C327.008 81.13 326.055 80.7433 325.249 80.21C324.444 79.65 323.826 78.93 323.396 78.05C322.967 77.17 322.752 76.09 322.752 74.81C322.752 73.5833 322.993 72.5433 323.477 71.69C323.987 70.8367 324.659 70.1567 325.491 69.65C326.324 69.1433 327.277 68.7833 328.351 68.57C329.425 68.33 330.54 68.21 331.695 68.21C332.473 68.21 333.158 68.25 333.749 68.33C334.367 68.3833 334.864 68.4633 335.24 68.57V68.01C335.24 66.9967 334.931 66.1833 334.313 65.57C333.695 64.9567 332.621 64.65 331.09 64.65C330.07 64.65 329.063 64.73 328.069 64.89C327.076 65.0233 326.216 65.2233 325.491 65.49L324.726 60.69C325.075 60.5833 325.504 60.4767 326.015 60.37C326.552 60.2367 327.129 60.13 327.747 60.05C328.365 59.9433 329.009 59.8633 329.68 59.81C330.379 59.73 331.077 59.69 331.775 59.69Z" fill="white"/>
<path d="M131.432 56.3117L125.673 67.2323C125.301 67.9374 125.546 68.8189 126.223 69.2153L135.241 74.4899C135.928 74.8918 136.802 74.6446 137.193 73.9377L148.215 54.0005H135.206C133.631 54.0005 132.183 54.8874 131.432 56.3117Z" fill="white"/>
<path d="M148.215 54L137.193 73.9375C136.801 74.6443 135.928 74.892 135.241 74.4904L132.888 73.1142C133.462 73.2093 134.059 72.9378 134.362 72.3873L144.53 54H148.215Z" fill="#DDDDDD"/>
<path d="M160.276 64.5737L156.303 56.4359C155.575 54.9429 154.09 54.0005 152.466 54.0005H140.981L149.799 69.3954C149.77 69.4088 149.741 69.4221 149.713 69.4355C149.158 69.6925 149.181 70.5113 149.748 70.7357L157.363 73.7447C157.716 73.8841 158.111 73.7028 158.247 73.3398L161.182 65.4741C161.399 64.8923 160.829 64.3308 160.276 64.5737Z" fill="#F1F4F3"/>
<path d="M161.182 65.4737L158.246 73.3393C158.111 73.7034 157.715 73.8849 157.362 73.7447L155.058 72.8339L157.805 65.4737C157.961 65.0563 157.712 64.6499 157.354 64.5432C157.013 64.4416 156.722 64.2119 156.563 63.8857L152.926 56.4359C152.198 54.9434 150.713 54 149.089 54H152.466C154.09 54 155.574 54.9434 156.303 56.4359L160.275 64.5743C160.83 64.3315 161.399 64.892 161.182 65.4737Z" fill="#AABAB1"/>
<path d="M152.603 95.9491C152.496 95.4973 151.929 95.3038 151.583 95.6595L145.632 101.784C145.395 102.028 145.395 102.424 145.632 102.668L151.606 108.816C151.95 109.169 152.51 108.98 152.623 108.536H161.409C163.026 108.536 164.506 107.601 165.238 106.117L170.251 95.949H152.603V95.9491Z" fill="white"/>
<path d="M160.019 95.9492L162.868 100.385C163.512 101.388 163.583 102.669 163.054 103.741L161.883 106.117C161.152 107.601 159.671 108.537 158.054 108.537H161.409C163.026 108.537 164.507 107.601 165.238 106.117L170.251 95.9493H160.019V95.9492Z" fill="#DDDDDD"/>
<path d="M140.613 107.367V96.5445C140.613 95.7311 139.972 95.0715 139.182 95.0715H115.603L121.671 106.535C122.423 107.956 123.87 108.84 125.442 108.84H139.182C139.972 108.84 140.613 108.181 140.613 107.367Z" fill="white"/>
<path d="M125.603 95.0722L120.366 104.071L115.603 95.0722H125.603Z" fill="#DDDDDD"/>
<path d="M140.613 96.5448V107.368C140.613 108.181 139.972 108.841 139.182 108.841H135.426C136.217 108.841 136.857 108.181 136.857 107.368V96.5448C136.857 95.7316 136.217 95.0723 135.426 95.0723H139.182C139.972 95.0721 140.613 95.7316 140.613 96.5448Z" fill="#DDDDDD"/>
<path d="M129.094 85.5083L128.035 77.3084C127.983 76.9033 127.621 76.6186 127.228 76.6724L119.229 77.7662C118.626 77.8485 118.402 78.6025 118.814 79.022L113.766 86.5097C112.84 87.8825 112.746 89.675 113.523 91.1423L119.017 101.521L127.937 86.1883C127.94 86.1908 127.943 86.1933 127.946 86.1958C128.455 86.5934 129.178 86.1603 129.094 85.5083Z" fill="#F1F4F3"/>
<path d="M127.946 86.1957C127.943 86.1932 127.94 86.1908 127.937 86.1882L119.017 101.52L117.182 98.0548L124.443 85.5732L124.644 85.227C124.754 85.0378 124.969 84.956 125.18 84.9981C125.181 84.9983 125.182 84.9984 125.183 84.9987C125.631 85.0808 126.09 84.697 126.021 84.1703L125.091 76.964L127.227 76.6725C127.621 76.6187 127.983 76.904 128.035 77.3081L129.094 85.509C129.178 86.1606 128.455 86.5935 127.946 86.1957Z" fill="#AABAB1"/>
<path d="M172.664 85.9461L165.759 75.6496C165.335 75.0179 164.511 74.8269 163.865 75.2104L154.866 80.5544C154.152 80.9784 153.933 81.9343 154.387 82.6424L167.074 102.394L172.96 90.4554C173.672 89.0103 173.559 87.2798 172.664 85.9461Z" fill="#F1F4F3"/>
<path d="M172.96 90.4556L167.073 102.393L165.099 99.3183L169.468 90.4555C170.181 89.0104 170.067 87.2802 169.173 85.9465L162.511 76.0153L163.866 75.2109C164.511 74.8267 165.336 75.0181 165.759 75.65L172.664 85.9466C173.559 87.2803 173.672 89.0106 172.96 90.4556Z" fill="#AABAB1"/>
<g clip-path="url(#clip1)">
<path d="M778.926 39.2903H709.074C708.21 39.2903 707.382 39.6343 706.772 40.2467C706.161 40.8591 705.818 41.6897 705.818 42.5557V112.443C705.818 113.309 706.161 114.139 706.772 114.752C707.382 115.364 708.21 115.708 709.074 115.708H778.926C779.79 115.708 780.618 115.364 781.228 114.752C781.839 114.139 782.182 113.309 782.182 112.443V42.5565C782.182 41.6905 781.839 40.8599 781.228 40.2475C780.618 39.6351 779.79 39.2911 778.926 39.2911V39.2903Z" fill="#202024"/>
<path fill-rule="evenodd" clip-rule="evenodd" d="M757.559 60.606C757.559 61.7573 758.036 62.3314 758.99 62.3314C759.564 62.3314 760.195 62.1492 760.874 61.7851L761.738 64.283C760.694 64.8422 759.71 65.124 758.788 65.124C757.442 65.124 756.401 64.7523 755.666 64.0113C754.933 63.2703 754.566 62.2084 754.566 60.8313V55.9049H752.137V53.4538H754.566V49.343L757.563 48.4351V53.4542H761.943V55.9053H757.563L757.56 60.606H757.559ZM738.028 59.7646H729.402C729.554 60.5669 729.89 61.2058 730.412 61.6827C730.935 62.1597 731.542 62.3983 732.24 62.3983C733.526 62.3983 734.464 61.8984 735.054 60.8986L737.732 61.4655C737.248 62.6168 736.53 63.4864 735.577 64.0786C734.623 64.6684 733.511 64.9631 732.24 64.9631C730.605 64.9631 729.228 64.404 728.108 63.2836C726.988 62.1633 726.429 60.7245 726.429 58.9676C726.429 57.2107 726.993 55.7699 728.121 54.6419C729.249 53.5139 730.638 52.9487 732.286 52.9487C733.83 52.9487 735.157 53.4897 736.265 54.5717C737.374 55.6538 737.964 57.0438 738.023 58.739V59.7646H738.028ZM730.549 56.1081C730.01 56.4721 729.659 56.9849 729.493 57.6521H734.962C734.78 56.9547 734.447 56.4338 733.963 56.0851C733.478 55.7364 732.92 55.5619 732.284 55.5619C731.664 55.5619 731.087 55.7441 730.549 56.1081ZM723.66 54.6205C724.493 55.505 724.908 56.654 724.908 58.0617V64.9651H721.911V58.6955C721.911 57.8932 721.703 57.249 721.285 56.7604C720.87 56.2758 720.314 56.0347 719.617 56.0347C717.741 56.0347 716.803 57.3369 716.803 59.9404V64.9623H713.807V53.63H716.803V54.6532C717.71 53.7453 718.9 53.2914 720.366 53.2914C721.729 53.2889 722.826 53.7324 723.659 54.6197L723.66 54.6205ZM747.426 64.9651H750.988L746.949 59.4461L750.988 53.6328H747.426L744.725 57.5385L742.047 53.6328H738.484L742.523 59.4461L738.484 64.9651H742.047L744.725 61.2623L747.426 64.9651ZM721.091 68.722V84.9315H724.087V68.722H721.091ZM737.501 79.731H728.877C729.028 80.5332 729.364 81.1722 729.887 81.6491C730.409 82.126 731.017 82.3647 731.714 82.3647C733 82.3647 733.939 81.8648 734.528 80.865L737.207 81.4314C736.723 82.5828 736.005 83.4524 735.051 84.0446C734.098 84.6344 732.986 84.9295 731.714 84.9295C730.079 84.9295 728.703 84.3703 727.583 83.2496C726.462 82.1289 725.904 80.6905 725.904 78.934C725.904 77.1775 726.468 75.7363 727.596 74.6083C728.724 73.4803 730.113 72.9159 731.76 72.9159C733.304 72.9159 734.631 73.4569 735.739 74.5393C736.848 75.6218 737.439 77.0114 737.497 78.7066V79.7322L737.501 79.731ZM730.023 76.0745C729.484 76.4385 729.133 76.9513 728.967 77.6185H734.436C734.254 76.9211 733.921 76.401 733.436 76.0515C732.952 75.702 732.393 75.5282 731.758 75.5282C731.14 75.5307 730.561 75.7129 730.023 76.0745ZM737.617 73.5766L742.814 84.9315H745.039L750.236 73.5766H747.035L743.926 80.5719L740.818 73.5766H737.616H737.617ZM761.949 79.731H753.324C753.475 80.5332 753.811 81.1722 754.334 81.6491C754.857 82.126 755.465 82.3647 756.161 82.3647C757.448 82.3647 758.386 81.8648 758.976 80.865L761.654 81.4314C761.17 82.5828 760.452 83.4524 759.499 84.0446C758.545 84.6344 757.433 84.9295 756.161 84.9295C754.526 84.9295 753.15 84.3703 752.03 83.2496C750.91 82.1289 750.351 80.6905 750.351 78.934C750.351 77.1775 750.915 75.7363 752.043 74.6083C753.171 73.4803 754.56 72.9159 756.208 72.9159C757.751 72.9159 759.078 73.4569 760.187 74.5393C761.295 75.6218 761.886 77.0114 761.945 78.7066V79.7322L761.949 79.731ZM754.47 76.0745C753.932 76.4385 753.581 76.9513 753.414 77.6185H758.883C758.702 76.9211 758.369 76.401 757.884 76.0515C757.399 75.702 756.841 75.5282 756.205 75.5282C755.585 75.5307 755.006 75.7129 754.47 76.0745ZM763.766 68.7224V84.9319H766.762V68.722H763.766V68.7224ZM727.206 103.755H724.707L722.257 97.077L719.784 103.755H717.288L713.087 92.3997H716.288L718.649 99.1898L721.078 92.3997H723.416L725.846 99.2128L728.206 92.3997H731.407L727.206 103.755H727.206ZM734.721 98.5541H743.345V97.5285C743.286 95.8333 742.699 94.4432 741.586 93.3612C740.474 92.2792 739.147 91.7377 737.608 91.7377C735.96 91.7377 734.571 92.3021 733.443 93.4309C732.315 94.5597 731.751 96.0002 731.751 97.7566C731.751 99.5131 732.314 100.952 733.43 102.072C734.546 103.193 735.926 103.752 737.561 103.752C738.833 103.752 739.945 103.457 740.898 102.867C741.852 102.275 742.57 101.405 743.054 100.254L740.376 99.6877C739.786 100.687 738.849 101.187 737.562 101.187C736.865 101.187 736.257 100.949 735.734 100.472C735.211 99.9949 734.876 99.3563 734.724 98.5537L734.721 98.5541ZM734.81 96.4408C734.977 95.7744 735.328 95.2612 735.866 94.8968C736.402 94.5351 736.981 94.3533 737.601 94.3505C738.236 94.3505 738.796 94.5251 739.28 94.8738C739.764 95.2225 740.097 95.743 740.279 96.4404H734.811L734.81 96.4408ZM755.852 98.5541H747.228C747.379 99.3563 747.714 99.9953 748.237 100.472C748.761 100.949 749.368 101.188 750.065 101.188C751.351 101.188 752.289 100.688 752.878 99.6881L755.557 100.255C755.072 101.406 754.355 102.275 753.401 102.868C752.448 103.457 751.335 103.753 750.064 103.753C748.429 103.753 747.053 103.193 745.933 102.073C744.813 100.952 744.254 99.5135 744.254 97.757C744.254 96.0006 744.818 94.5589 745.946 93.4313C747.074 92.3038 748.463 91.7381 750.111 91.7381C751.654 91.7381 752.981 92.2796 754.09 93.3616C755.198 94.4436 755.789 95.8337 755.848 97.5289V98.5545L755.852 98.5541ZM748.373 94.8976C747.835 95.2616 747.484 95.7748 747.317 96.4416H752.787C752.605 95.7442 752.271 95.2241 751.787 94.875C751.303 94.5259 750.744 94.3517 750.108 94.3517C749.488 94.3545 748.909 94.5364 748.373 94.898V94.8976ZM760.119 103.755V99.4619L764.661 103.752H768.746L762.843 98.0743L768.313 92.4199H764.522L760.12 96.8717V87.535H757.123V103.755H760.12H760.119Z" fill="white"/>
<path fill-rule="evenodd" clip-rule="evenodd" d="M710.601 57.4518V54.3411L702.017 57.5376L702 57.5312V60.7241L702.017 60.7176L710.601 63.9141V60.8035L706.196 59.1276L710.601 57.4518ZM777.396 104.329V101.218L781.798 99.5438L777.396 97.8695V94.7544L785.977 97.9497L785.997 97.9417V101.137L785.977 101.129L777.396 104.324V104.329ZM768.818 83.7096V86.1841H778.354V83.7096H768.818H768.818ZM710.113 86.6618V84.1865H719.65V86.6618H710.114H710.113ZM773.711 90.3586L768.664 106.568H771.661L776.707 90.3586H773.711Z" fill="#14ED77"/>
<path d="M784.958 53.0068H771.674C770.955 53.0068 770.372 53.5916 770.372 54.313V61.661C770.372 62.3824 770.955 62.9672 771.674 62.9672H784.958C785.677 62.9672 786.26 62.3824 786.26 61.661V54.313C786.26 53.5916 785.677 53.0068 784.958 53.0068Z" fill="#14ED77"/>
<path d="M774.954 58.7988H774.389L774.178 60H773.642L773.853 58.7988H773.188V58.2949H773.94L774.087 57.4629H773.407V56.9531H774.178L774.392 55.7344H774.925L774.711 56.9531H775.279L775.493 55.7344H776.029L775.815 56.9531H776.457V57.4629H775.725L775.578 58.2949H776.234V58.7988H775.49L775.279 60H774.743L774.954 58.7988ZM774.477 58.2949H775.042L775.188 57.4629H774.62L774.477 58.2949ZM779.735 58.2363C779.735 58.8262 779.613 59.2773 779.369 59.5898C779.125 59.9023 778.768 60.0586 778.297 60.0586C777.832 60.0586 777.477 59.9053 777.23 59.5986C776.984 59.292 776.858 58.8525 776.853 58.2803V57.4951C776.853 56.8994 776.976 56.4473 777.222 56.1387C777.47 55.8301 777.826 55.6758 778.291 55.6758C778.756 55.6758 779.111 55.8291 779.357 56.1357C779.604 56.4404 779.729 56.8789 779.735 57.4512V58.2363ZM778.889 57.375C778.889 57.0215 778.84 56.7646 778.742 56.6045C778.646 56.4424 778.496 56.3613 778.291 56.3613C778.092 56.3613 777.944 56.4385 777.849 56.5928C777.755 56.7451 777.705 56.9844 777.699 57.3105V58.3477C777.699 58.6953 777.746 58.9541 777.84 59.124C777.936 59.292 778.088 59.376 778.297 59.376C778.504 59.376 778.653 59.2949 778.745 59.1328C778.837 58.9707 778.885 58.7227 778.889 58.3887V57.375ZM782.366 60H781.52V56.7363L780.509 57.0498V56.3613L782.275 55.7285H782.366V60Z" fill="white"/>
</g>
</g>
<defs>
<clipPath id="clip0">
<rect width="900" height="160" rx="4" fill="white"/>
</clipPath>
<clipPath id="clip1">
<rect width="84" height="77" fill="white" transform="translate(702 39)"/>
</clipPath>
</defs>
</svg>
